<?xml version="1.0" standalone="no"?><!DOCTYPE svg PUBLIC "-//W3C//DTD SVG 1.1//EN" "http://www.w3.org/Graphics/SVG/1.1/DTD/svg11.dtd"><svg t="1561299578453" class="icon" viewBox="0 0 1024 1024" version="1.1" xmlns="http://www.w3.org/2000/svg" p-id="2003" xmlns:xlink="http://www.w3.org/1999/xlink" width="64" height="64"><defs><style type="text/css"></style></defs><path d="M598.050133 501.623467l265.693867-265.693867c26.385067-26.385067 26.453333-69.666133-0.2048-96.324267-26.8288-26.8288-69.802667-26.760533-96.3584-0.2048l-265.693867 265.693867-265.693867-265.693867c-26.555733-26.555733-69.495467-26.658133-96.3584 0.2048-26.658133 26.658133-26.589867 69.9392-0.2048 96.324267l265.693867 265.693867-265.693867 265.693867c-26.385067 26.385067-26.453333 69.666133 0.2048 96.3584 26.8288 26.8288 69.802667 26.760533 96.3584 0.2048l265.693867-265.693867 265.693867 265.693867c26.555733 26.555733 69.495467 26.658133 96.3584-0.2048 26.658133-26.658133 26.589867-69.9392 0.2048-96.3584L598.050133 501.623467 598.050133 501.623467z" p-id="2004" fill="#d81e06"></path></svg>